<svg width="75" height="20" viewBox="0 0 75 20" fill="none" xmlns="http://www.w3.org/2000/svg">
<path d="M0.305344 11.6794C0.271416 11.2383 0.229008 10.7973 0.178117 10.3562C0.14419 9.89822 0.0848176 9.44868 0 9.00763C0 8.63444 0.118745 8.39695 0.356234 8.29517C0.610687 8.19338 0.882104 8.14249 1.17048 8.14249H1.67939C1.93384 8.26124 2.11196 8.40543 2.21374 8.57506C2.31552 8.7447 2.38338 8.9313 2.4173 9.13486C2.45123 9.33842 2.45971 9.55047 2.44275 9.77099C2.44275 9.99152 2.45123 10.2036 2.46819 10.4071C2.48516 10.4919 2.49364 10.6361 2.49364 10.8397C2.49364 11.0433 2.49364 11.2553 2.49364 11.4758C2.5106 11.6964 2.52757 11.8999 2.54453 12.0865C2.57846 12.2731 2.62087 12.3919 2.67176 12.4427L4.91094 8.24427C5.01272 8.05768 5.15691 7.905 5.34351 7.78626C5.54707 7.65055 5.7676 7.59966 6.00509 7.63359C6.37829 7.66751 6.65819 7.74385 6.84478 7.8626C7.03138 7.96438 7.15861 8.10857 7.22646 8.29517C7.31128 8.4648 7.35369 8.67684 7.35369 8.9313C7.37065 9.18575 7.38762 9.46565 7.40458 9.77099C7.40458 9.87277 7.41306 10.0679 7.43003 10.3562C7.44699 10.6277 7.46395 10.916 7.48092 11.2214C7.51484 11.5267 7.54029 11.8151 7.55725 12.0865C7.59118 12.3579 7.61662 12.5445 7.63359 12.6463H7.73537C7.7693 12.5276 7.82867 12.2986 7.91349 11.9593C8.01527 11.62 8.12553 11.2638 8.24428 10.8906C8.36302 10.5174 8.47328 10.1612 8.57506 9.82188C8.67685 9.48261 8.75318 9.24512 8.80407 9.10941C8.82104 9.07549 8.85496 9.00763 8.90585 8.90585C8.95674 8.78711 9.00763 8.66836 9.05852 8.54962C9.10942 8.41391 9.16031 8.29517 9.2112 8.19338C9.26209 8.07464 9.29601 7.98982 9.31298 7.93893C9.43172 7.75233 9.55047 7.65903 9.66921 7.65903C9.80492 7.64207 9.94911 7.63359 10.1018 7.63359C10.5259 7.63359 10.8482 7.74385 11.0687 7.96438C11.3062 8.16794 11.4758 8.43087 11.5776 8.75318C11.6964 9.07549 11.7812 9.43172 11.8321 9.82188C11.883 10.1951 11.9423 10.5428 12.0102 10.8651C12.0271 10.8651 12.0356 10.8821 12.0356 10.916C12.0356 10.933 12.0271 10.95 12.0102 10.9669L13.4097 18.3715C13.4775 18.4394 13.5115 18.4987 13.5115 18.5496C13.5284 18.6005 13.5369 18.6684 13.5369 18.7532C13.5369 18.9398 13.4436 19.1264 13.257 19.313C13.0874 19.4826 12.9092 19.5674 12.7226 19.5674C12.4682 19.5674 12.1713 19.4741 11.8321 19.2875C11.5098 19.1009 11.3232 18.8634 11.2723 18.5751L10.1018 12.5445L9.97456 12.341C9.94063 12.4258 9.86429 12.6718 9.74555 13.0789C9.64377 13.469 9.51654 13.9695 9.36387 14.5802C9.2112 15.1739 9.03308 15.8439 8.82952 16.5903C8.64292 17.3367 8.44784 18.1001 8.24428 18.8804C8.21035 19.0331 8.10857 19.1518 7.93893 19.2366C7.78626 19.3045 7.65055 19.3384 7.53181 19.3384C7.17557 19.3384 6.88719 19.296 6.66667 19.2112C6.44614 19.1264 6.27651 18.9992 6.15776 18.8295C6.03902 18.6599 5.9542 18.4563 5.90331 18.2188C5.85242 17.9813 5.81001 17.7099 5.77608 17.4046C5.77608 17.3367 5.75912 17.0992 5.72519 16.6921C5.69126 16.268 5.64886 15.793 5.59796 15.2672C5.56404 14.7243 5.52163 14.1815 5.47074 13.6387C5.41985 13.0958 5.38592 12.6633 5.36896 12.341C5.36896 12.2731 5.36896 12.2222 5.36896 12.1883C5.36896 12.1544 5.36896 12.1289 5.36896 12.112C5.36896 12.078 5.36048 12.0441 5.34351 12.0102C5.32655 11.9593 5.29262 11.883 5.24173 11.7812L4.50382 13.5369L3.33333 17.8371L3.07888 19.4148C3.06192 19.5165 3.01103 19.6098 2.92621 19.6947C2.85835 19.7625 2.77354 19.8219 2.67176 19.8728C2.56997 19.9067 2.46819 19.9321 2.36641 19.9491C2.26463 19.9661 2.17981 19.9746 2.11196 19.9746C1.73876 19.9746 1.41645 19.8388 1.14504 19.5674C0.890585 19.296 0.754877 18.9992 0.737913 18.6768C0.72095 18.5581 0.703986 18.3291 0.687023 17.9898C0.670059 17.6336 0.644614 17.218 0.610687 16.743C0.57676 16.268 0.542833 15.7676 0.508906 15.2417C0.491942 14.7159 0.466497 14.2154 0.43257 13.7405C0.398643 13.2655 0.364716 12.8499 0.330789 12.4936C0.313825 12.1374 0.305344 11.8999 0.305344 11.7812V11.6794Z" fill="black"/>
<path d="M20.6361 12.8753C20.4835 13.1467 20.3053 13.4775 20.1018 13.8677C19.9152 14.2409 19.7116 14.648 19.4911 15.0891C19.2706 15.5131 19.0246 15.9457 18.7532 16.3868C18.4987 16.8109 18.2273 17.201 17.9389 17.5573C17.6675 17.9135 17.3791 18.2188 17.0738 18.4733C16.7684 18.7108 16.4546 18.855 16.1323 18.9059C15.9966 18.9059 15.8439 18.8974 15.6743 18.8804C15.5047 18.8465 15.335 18.8041 15.1654 18.7532C14.9958 18.6853 14.8516 18.6005 14.7328 18.4987C14.631 18.38 14.5802 18.2273 14.5802 18.0407C14.5971 16.3104 14.7243 14.7413 14.9618 13.3333C15.1993 11.9084 15.5725 10.6616 16.0814 9.59287C16.5903 8.50721 17.2434 7.60814 18.0407 6.89567C18.838 6.18321 19.8049 5.6743 20.9415 5.36896C20.9754 5.36896 21.0348 5.36896 21.1196 5.36896C21.2214 5.35199 21.2892 5.34351 21.3232 5.34351C21.8321 5.32655 22.1968 5.56404 22.4173 6.05598C22.6548 6.53096 22.8244 7.29432 22.9262 8.34606C23.045 9.38083 23.1213 10.721 23.1552 12.3664C23.2061 13.9949 23.2994 15.9542 23.4351 18.2443C23.486 18.4309 23.5115 18.592 23.5115 18.7277C23.5284 18.8634 23.5369 19.0246 23.5369 19.2112C23.5369 19.4656 23.4606 19.6607 23.3079 19.7964C23.1552 19.9152 22.9601 19.9746 22.7226 19.9746C22.2307 19.9746 21.883 19.8388 21.6794 19.5674C21.4758 19.296 21.3401 18.9313 21.2723 18.4733C21.2723 18.4563 21.2553 18.3206 21.2214 18.0662C21.2044 17.8117 21.1705 17.5233 21.1196 17.201C21.0857 16.8617 21.0517 16.5225 21.0178 16.1832C20.9839 15.8439 20.9584 15.564 20.9415 15.3435V15.2417C20.9075 15.0721 20.8821 14.8601 20.8651 14.6056C20.8651 14.3511 20.8482 14.1052 20.8143 13.8677C20.7803 13.5793 20.7549 13.2909 20.7379 13.0025L20.6361 12.8753ZM20.0763 7.83715C19.6183 8.17642 19.1688 8.63444 18.7277 9.2112C18.2867 9.78796 17.9729 10.3478 17.7863 10.8906C17.7014 11.145 17.6081 11.4928 17.5064 11.9338C17.4046 12.3749 17.3113 12.8159 17.2265 13.257C17.1586 13.6811 17.0992 14.0797 17.0483 14.4529C16.9975 14.8092 16.972 15.0382 16.972 15.1399C16.989 15.1399 17.0059 15.123 17.0229 15.0891C17.0568 15.0551 17.0823 15.0297 17.0992 15.0127C18.151 13.9949 18.8889 12.9008 19.313 11.7303C19.754 10.5428 20.0085 9.24512 20.0763 7.83715Z" fill="black"/>
<path d="M27.3028 12.5445C27.0653 12.5445 26.8533 12.6039 26.6667 12.7226C26.4801 12.8414 26.2595 12.9008 26.0051 12.9008C25.9712 12.9008 25.8779 12.9008 25.7252 12.9008C25.5895 12.8838 25.5047 12.8753 25.4707 12.8753C25.4029 12.7905 25.3265 12.7226 25.2417 12.6718C25.1569 12.6209 25.0721 12.57 24.9873 12.5191C24.9025 12.4512 24.8261 12.3749 24.7583 12.2901C24.7074 12.2053 24.6819 12.0865 24.6819 11.9338C24.6819 11.6794 24.7837 11.4758 24.9873 11.3232C25.1908 11.1535 25.4283 11.0093 25.6997 10.8906C25.9712 10.7718 26.2426 10.6616 26.514 10.5598C26.8024 10.458 27.0314 10.3393 27.201 10.2036V9.08397C27.201 7.82867 27.1416 6.57337 27.0229 5.31807C26.9042 4.0458 26.8448 2.7905 26.8448 1.55216C26.8448 1.21289 26.9296 0.992366 27.0992 0.890585C27.2689 0.788804 27.4979 0.737913 27.7863 0.737913C28.1255 0.737913 28.3715 0.839695 28.5242 1.04326C28.6938 1.22986 28.8126 1.46735 28.8804 1.75573C28.9483 2.02714 28.9822 2.324 28.9822 2.64631C28.9822 2.95165 28.9907 3.21459 29.0076 3.43511C29.0076 3.65564 29.0246 4.0458 29.0585 4.6056C29.0925 5.16539 29.1264 5.75912 29.1603 6.38677C29.1942 7.01442 29.2282 7.60814 29.2621 8.16794C29.296 8.72774 29.3215 9.1179 29.3384 9.33842C29.4063 9.32146 29.5335 9.27905 29.7201 9.2112C29.9237 9.12638 30.1357 9.05004 30.3562 8.98219C30.5768 8.89737 30.7803 8.82103 30.9669 8.75318C31.1705 8.68533 31.3147 8.63444 31.3995 8.60051C31.8405 8.41391 32.2986 8.21035 32.7735 7.98982C33.2485 7.75233 33.732 7.63359 34.2239 7.63359C34.5632 7.63359 34.8176 7.75233 34.9873 7.98982C35.1739 8.21035 35.2672 8.47328 35.2672 8.77863C35.2672 8.99915 35.1824 9.16031 35.0127 9.26209C34.8431 9.36387 34.665 9.45717 34.4784 9.54198L29.8473 11.2723C29.7964 11.3062 29.7455 11.3401 29.6947 11.374C29.6438 11.391 29.5929 11.4249 29.542 11.4758V12.2901C29.542 12.8838 29.5505 13.503 29.5674 14.1476C29.6014 14.7752 29.6607 15.3859 29.7455 15.9796C29.8304 16.4885 29.9237 16.989 30.0254 17.4809C30.1272 17.9729 30.1781 18.4733 30.1781 18.9822C30.1781 19.1349 30.1272 19.3384 30.0254 19.5929C29.9237 19.8473 29.7625 19.9746 29.542 19.9746C29.084 19.9746 28.7108 19.8388 28.4224 19.5674C28.134 19.296 27.9729 18.9313 27.9389 18.4733C27.8541 17.5912 27.7608 16.6243 27.659 15.5725C27.5742 14.5208 27.4894 13.5114 27.4046 12.5445H27.3028Z" fill="black"/>
<path d="M37.2774 19.0076C37.1077 17.3113 36.9635 15.8609 36.8448 14.6565C36.726 13.4521 36.6243 12.4427 36.5394 11.6285C36.4546 10.8142 36.3783 10.1696 36.3104 9.69466C36.2595 9.20271 36.2171 8.838 36.1832 8.60051C36.1493 8.34606 36.1238 8.17642 36.1069 8.0916C36.0899 8.00679 36.0814 7.95589 36.0814 7.93893V7.83715C36.0814 7.65055 36.1578 7.49788 36.3104 7.37913C36.4801 7.24343 36.6497 7.17557 36.8193 7.17557C37.0738 7.17557 37.3452 7.21798 37.6336 7.3028C37.9389 7.38762 38.1425 7.56573 38.2443 7.83715C38.3969 8.66836 38.4987 9.50806 38.5496 10.3562C38.6175 11.2044 38.6684 12.0526 38.7023 12.9008C38.7532 13.732 38.8126 14.5717 38.8804 15.4198C38.9652 16.268 39.1094 17.1077 39.313 17.9389C39.313 17.9729 39.3215 18.0407 39.3384 18.1425C39.3724 18.2443 39.3978 18.3545 39.4148 18.4733C39.4487 18.592 39.4741 18.7023 39.4911 18.8041C39.5081 18.9059 39.5165 18.9737 39.5165 19.0076V19.0585C39.5165 19.0755 39.525 19.0925 39.542 19.1094C39.542 19.313 39.4487 19.5165 39.2621 19.7201C39.0755 19.9237 38.8804 20.0085 38.6768 19.9746C38.626 19.9576 38.4987 19.9321 38.2952 19.8982C38.1086 19.8473 37.9813 19.8049 37.9135 19.771C37.8626 19.754 37.7947 19.7201 37.7099 19.6692C37.6251 19.6014 37.5403 19.5335 37.4555 19.4656C37.3876 19.3978 37.3282 19.3215 37.2774 19.2366C37.2265 19.1518 37.2265 19.0755 37.2774 19.0076ZM35.8524 0.458015C35.8524 0.339271 35.9457 0.237489 36.1323 0.152672C36.3359 0.0508906 36.4886 0 36.5903 0C36.8448 0 37.1247 0.0763359 37.43 0.229008C37.7523 0.364716 37.9135 0.57676 37.9135 0.86514C37.9135 1.15352 37.8711 1.3486 37.7863 1.45038C37.7184 1.55216 37.5403 1.60305 37.2519 1.60305C36.9466 1.60305 36.6327 1.50127 36.3104 1.29771C36.0051 1.09415 35.8524 0.814249 35.8524 0.458015Z" fill="black"/>
<path d="M44.3257 19.0076C44.3257 18.9228 44.3257 18.8465 44.3257 18.7786C44.3427 18.7108 44.3851 18.6429 44.4529 18.5751C44.6565 18.3206 44.8855 18.0577 45.1399 17.7863C45.3944 17.4979 45.6404 17.218 45.8779 16.9466C46.1154 16.6582 46.3359 16.3613 46.5394 16.056C46.743 15.7506 46.9126 15.4453 47.0483 15.1399V14.9873L43.715 15.6743H43.3333C43.0958 15.6743 42.799 15.6573 42.4427 15.6234C42.1035 15.5895 41.7642 15.5216 41.4249 15.4198C41.1026 15.3011 40.8227 15.1399 40.5852 14.9364C40.3647 14.7328 40.2545 14.4614 40.2545 14.1221C40.2714 13.732 40.475 13.2994 40.8651 12.8244C41.2553 12.3494 41.7133 11.883 42.2392 11.4249C42.7651 10.9669 43.2909 10.5428 43.8168 10.1527C44.3596 9.76251 44.7922 9.45717 45.1145 9.23664C45.4707 9.03308 45.8948 8.87193 46.3868 8.75318C46.8787 8.61747 47.3282 8.54962 47.7354 8.54962C48.0746 8.54962 48.3715 8.61747 48.626 8.75318C48.8804 8.87193 49.0076 9.1179 49.0076 9.49109C49.0076 9.64377 48.9907 9.78796 48.9567 9.92366C48.9398 10.0594 48.838 10.1527 48.6514 10.2036C48.1086 10.1527 47.5997 10.1951 47.1247 10.3308C46.6497 10.4495 46.2002 10.6361 45.7761 10.8906C45.352 11.145 44.9534 11.4504 44.5802 11.8066C44.207 12.1459 43.8422 12.5021 43.486 12.8753C43.3842 12.9941 43.257 13.1637 43.1043 13.3842C42.9517 13.5878 42.8753 13.7065 42.8753 13.7405V13.7659C43.3164 13.7659 43.7489 13.7235 44.173 13.6387C44.6141 13.5539 45.0466 13.469 45.4707 13.3842C45.9118 13.2824 46.3444 13.1891 46.7684 13.1043C47.2095 13.0195 47.659 12.9771 48.1171 12.9771C48.2867 12.9771 48.4733 12.9941 48.6768 13.028C48.8804 13.045 49.067 13.0958 49.2366 13.1807C49.4232 13.2655 49.5674 13.3842 49.6692 13.5369C49.788 13.6726 49.8473 13.8507 49.8473 14.0712C49.8473 14.3936 49.7625 14.7074 49.5929 15.0127C49.4402 15.3011 49.2027 15.6573 48.8804 16.0814C48.5751 16.4885 48.1764 16.989 47.6845 17.5827C47.2095 18.1764 46.6412 18.9398 45.9796 19.8728C45.9457 19.9237 45.8609 19.9576 45.7252 19.9746C45.6064 19.9915 45.5047 20 45.4198 20C45.1824 20 44.9364 19.8982 44.6819 19.6947C44.4444 19.4911 44.3257 19.2621 44.3257 19.0076Z" fill="black"/>
<path d="M54.8092 19.0076C54.8092 18.9228 54.8092 18.8465 54.8092 18.7786C54.8261 18.7108 54.8685 18.6429 54.9364 18.5751C55.1399 18.3206 55.369 18.0577 55.6234 17.7863C55.8779 17.4979 56.1238 17.218 56.3613 16.9466C56.5988 16.6582 56.8193 16.3613 57.0229 16.056C57.2265 15.7506 57.3961 15.4453 57.5318 15.1399V14.9873L54.1985 15.6743H53.8168C53.5793 15.6743 53.2824 15.6573 52.9262 15.6234C52.5869 15.5895 52.2477 15.5216 51.9084 15.4198C51.5861 15.3011 51.3062 15.1399 51.0687 14.9364C50.8482 14.7328 50.7379 14.4614 50.7379 14.1221C50.7549 13.732 50.9584 13.2994 51.3486 12.8244C51.7388 12.3494 52.1968 11.883 52.7226 11.4249C53.2485 10.9669 53.7744 10.5428 54.3003 10.1527C54.8431 9.76251 55.2757 9.45717 55.598 9.23664C55.9542 9.03308 56.3783 8.87193 56.8702 8.75318C57.3622 8.61747 57.8117 8.54962 58.2188 8.54962C58.5581 8.54962 58.855 8.61747 59.1094 8.75318C59.3639 8.87193 59.4911 9.1179 59.4911 9.49109C59.4911 9.64377 59.4741 9.78796 59.4402 9.92366C59.4232 10.0594 59.3215 10.1527 59.1349 10.2036C58.592 10.1527 58.0831 10.1951 57.6081 10.3308C57.1332 10.4495 56.6836 10.6361 56.2595 10.8906C55.8355 11.145 55.4368 11.4504 55.0636 11.8066C54.6904 12.1459 54.3257 12.5021 53.9695 12.8753C53.8677 12.9941 53.7405 13.1637 53.5878 13.3842C53.4351 13.5878 53.3588 13.7065 53.3588 13.7405V13.7659C53.7998 13.7659 54.2324 13.7235 54.6565 13.6387C55.0975 13.5539 55.5301 13.469 55.9542 13.3842C56.3953 13.2824 56.8278 13.1891 57.2519 13.1043C57.693 13.0195 58.1425 12.9771 58.6005 12.9771C58.7701 12.9771 58.9567 12.9941 59.1603 13.028C59.3639 13.045 59.5505 13.0958 59.7201 13.1807C59.9067 13.2655 60.0509 13.3842 60.1527 13.5369C60.2714 13.6726 60.3308 13.8507 60.3308 14.0712C60.3308 14.3936 60.246 14.7074 60.0763 15.0127C59.9237 15.3011 59.6862 15.6573 59.3639 16.0814C59.0585 16.4885 58.6599 16.989 58.1679 17.5827C57.693 18.1764 57.1247 18.9398 56.4631 19.8728C56.4292 19.9237 56.3444 19.9576 56.2087 19.9746C56.0899 19.9915 55.9881 20 55.9033 20C55.6658 20 55.4198 19.8982 55.1654 19.6947C54.9279 19.4911 54.8092 19.2621 54.8092 19.0076Z" fill="black"/>
<path d="M72.0865 12.7481C72.0526 13.0534 72.0102 13.2909 71.9593 13.4606C71.9254 13.6302 71.8575 13.7829 71.7557 13.9186C71.6539 14.0543 71.5098 14.1985 71.3232 14.3511C71.1366 14.4869 70.8821 14.6904 70.5598 14.9618C70.2375 15.2163 69.8389 15.5556 69.3639 15.9796C68.8889 16.4037 68.3121 16.955 67.6336 17.6336C67.3622 17.888 67.0823 18.151 66.7939 18.4224C66.5055 18.6938 66.2002 18.9398 65.8779 19.1603C65.5725 19.3639 65.2502 19.5335 64.9109 19.6692C64.5717 19.8049 64.2154 19.8728 63.8422 19.8728C63.1128 19.8728 62.5785 19.6268 62.2392 19.1349C61.8999 18.6429 61.7303 18.0746 61.7303 17.43C61.7303 17.0059 61.7388 16.6497 61.7557 16.3613C61.7897 16.0729 61.8575 15.6997 61.9593 15.2417C61.7727 15.0721 61.6115 14.9279 61.4758 14.8092C61.3401 14.6735 61.2723 14.4953 61.2723 14.2748C61.2723 14.0712 61.3147 13.9355 61.3995 13.8677C61.5013 13.7998 61.6115 13.7574 61.7303 13.7405C61.866 13.7065 61.9932 13.6726 62.112 13.6387C62.2307 13.6047 62.3155 13.5369 62.3664 13.4351C62.4003 13.3333 62.4597 13.1467 62.5445 12.8753C62.6463 12.6039 62.7481 12.324 62.8499 12.0356C62.9517 11.7303 63.045 11.4504 63.1298 11.1959C63.2316 10.9245 63.2994 10.7379 63.3333 10.6361C63.4521 10.3478 63.5793 10.0594 63.715 9.77099C63.8677 9.46565 64.0373 9.19423 64.2239 8.95674C64.4275 8.71925 64.6565 8.52417 64.9109 8.3715C65.1824 8.21883 65.4962 8.14249 65.8524 8.14249C66.056 8.14249 66.302 8.23579 66.5903 8.42239C66.8957 8.60899 67.1841 8.838 67.4555 9.10941C67.7269 9.36387 67.9559 9.63528 68.1425 9.92366C68.3291 10.212 68.4224 10.458 68.4224 10.6616C68.4224 10.916 68.363 11.1535 68.2443 11.374C68.1255 11.5776 67.9729 11.7727 67.7863 11.9593C67.6166 12.1289 67.43 12.2901 67.2265 12.4427C67.0229 12.5954 66.8363 12.7396 66.6667 12.8753C66.6497 12.8753 66.6158 12.8923 66.5649 12.9262C66.514 12.9601 66.4716 12.9856 66.4377 13.0025C66.4207 13.0195 66.3783 13.0619 66.3104 13.1298C66.2595 13.1807 66.2002 13.24 66.1323 13.3079C66.0645 13.3757 65.9966 13.4436 65.9288 13.5114C65.8779 13.5793 65.8439 13.6217 65.827 13.6387C65.7761 13.6896 65.6743 13.7744 65.5216 13.8931C65.3859 13.9949 65.2333 14.1137 65.0636 14.2494C64.894 14.3681 64.7328 14.4869 64.5802 14.6056C64.4445 14.7074 64.3512 14.7752 64.3003 14.8092L64.1985 15.0127C64.1646 15.0806 64.1306 15.2332 64.0967 15.4707C64.0797 15.6913 64.0543 15.9457 64.0204 16.2341C63.9864 16.5225 63.9525 16.8193 63.9186 17.1247C63.9016 17.4131 63.8931 17.6506 63.8931 17.8371C63.8931 17.8541 63.9016 17.8711 63.9186 17.888C63.9525 17.922 63.978 17.9389 63.9949 17.9389C64.1306 17.9389 64.2579 17.8796 64.3766 17.7608C64.4953 17.6421 64.6226 17.5573 64.7583 17.5064L68.8295 13.7405L69.8728 12.1374C69.9576 12.0187 70.1187 11.8914 70.3562 11.7557C70.6107 11.6031 70.8651 11.5267 71.1196 11.5267C71.374 11.5098 71.5946 11.5861 71.7812 11.7557C71.9847 11.9254 72.0865 12.2561 72.0865 12.7481ZM66.4886 10.7634C66.5734 10.6955 66.6073 10.5937 66.5903 10.458C66.5734 10.3223 66.5225 10.2036 66.4377 10.1018C66.3698 10 66.2765 9.94063 66.1578 9.92366C66.039 9.88974 65.9288 9.94911 65.827 10.1018C65.7761 10.1696 65.6828 10.3053 65.5471 10.5089C65.4283 10.7125 65.3011 10.9245 65.1654 11.145C65.0467 11.3486 64.9449 11.5267 64.8601 11.6794C64.7752 11.8321 64.7583 11.8914 64.8092 11.8575L66.4886 10.7634Z" fill="black"/>
<path d="M72.748 19.0074C72.748 18.77 72.8329 18.5494 73.0025 18.3459C73.1891 18.1423 73.4011 18.0405 73.6386 18.0405C73.927 18.0405 74.156 18.1169 74.3257 18.2695C74.5123 18.4222 74.6904 18.5918 74.86 18.7784V18.8548C74.86 19.1432 74.7582 19.4061 74.5547 19.6436C74.3681 19.8641 74.1136 19.9744 73.7913 19.9744C73.5708 19.9744 73.3418 19.8726 73.1043 19.669C72.8668 19.4655 72.748 19.2449 72.748 19.0074Z" fill="#1F6DC9"/>
</svg>
